<?xml version="1.0" encoding="utf-8"?>
<!-- created with bpmn-js / http://bpmn.io -->
<!DOCTYPE svg PUBLIC "-//W3C//DTD SVG 1.1//EN" "http://www.w3.org/Graphics/SVG/1.1/DTD/svg11.dtd">
<svg xmlns="http://www.w3.org/2000/svg" xmlns:xlink="http://www.w3.org/1999/xlink" width="1929" height="422" viewBox="167 74 1929 422" version="1.1"><defs><marker id="sequenceflow-end-white-black-b3gwn5modnl2py15xtli5vp71" viewBox="0 0 20 20" refX="11" refY="10" markerWidth="10" markerHeight="10" orient="auto"><path d="M 1 5 L 11 10 L 1 15 Z" style="fill: black; stroke-width: 1px; stroke-linecap: round; stroke-dasharray: 10000, 1; stroke: black; --darkreader-inline-fill:#d3d2cf; --darkreader-inline-stroke:#d3d2cf;" data-darkreader-inline-fill="" data-darkreader-inline-stroke=""/></marker></defs><g class="djs-group"><g class="djs-element djs-connection" data-element-id="SequenceFlow_0upwitq" style="display: block;"><g class="djs-visual"><path d="m  209,120L392,120 " style="fill: none; stroke-width: 2px; stroke: black; stroke-linejoin: round; marker-end: url('#sequenceflow-end-white-black-b3gwn5modnl2py15xtli5vp71'); --darkreader-inline-fill:none; --darkreader-inline-stroke:#d3d2cf;" data-darkreader-inline-fill="" data-darkreader-inline-stroke=""/></g><polyline points="209,120 392,120 " class="djs-hit" style="fill: none; stroke-opacity: 0; stroke: white; stroke-width: 15px; --darkreader-inline-fill:none; --darkreader-inline-stroke:#e6e6e6;" data-darkreader-inline-fill="" data-darkreader-inline-stroke=""/><rect x="203" y="114" width="195" height="12" class="djs-outline" style="fill: none; --darkreader-inline-fill:none;" data-darkreader-inline-fill=""/></g></g><g class="djs-group"><g class="djs-element djs-connection" data-element-id="SequenceFlow_0sntvjl" style="display: block;"><g class="djs-visual"><path d="m  492,120L592,120 " style="fill: none; stroke-width: 2px; stroke: black; stroke-linejoin: round; marker-end: url('#sequenceflow-end-white-black-b3gwn5modnl2py15xtli5vp71');"/></g><polyline points="492,120 592,120 " class="djs-hit" style="fill: none; stroke-opacity: 0; stroke: white; stroke-width: 15px;"/><rect x="486" y="114" width="112" height="12" class="djs-outline" style="fill: none;"/></g></g><g class="djs-group"><g class="djs-element djs-connection" data-element-id="SequenceFlow_162hkq2" style="display: block;"><g class="djs-visual"><path d="m  692,120L742,120 " style="fill: none; stroke-width: 2px; stroke: black; stroke-linejoin: round; marker-end: url('#sequenceflow-end-white-black-b3gwn5modnl2py15xtli5vp71');"/></g><polyline points="692,120 742,120 " class="djs-hit" style="fill: none; stroke-opacity: 0; stroke: white; stroke-width: 15px;"/><rect x="686" y="114" width="62" height="12" class="djs-outline" style="fill: none;"/></g></g><g class="djs-group"><g class="djs-element djs-connection" data-element-id="SequenceFlow_1q722a7" style="display: block;"><g class="djs-visual"><path d="m  792,120L852,120 " style="fill: none; stroke-width: 2px; stroke: black; stroke-linejoin: round; marker-end: url('#sequenceflow-end-white-black-b3gwn5modnl2py15xtli5vp71');"/></g><polyline points="792,120 852,120 " class="djs-hit" style="fill: none; stroke-opacity: 0; stroke: white; stroke-width: 15px;"/><rect x="786" y="114" width="72" height="12" class="djs-outline" style="fill: none;"/></g></g><g class="djs-group"><g class="djs-element djs-connection" data-element-id="SequenceFlow_0f07fvs" style="display: block;"><g class="djs-visual"><path d="m  767,145L767,230 L852,230 " style="fill: none; stroke-width: 2px; stroke: black; stroke-linejoin: round; marker-end: url('#sequenceflow-end-white-black-b3gwn5modnl2py15xtli5vp71');"/></g><polyline points="767,145 767,230 852,230 " class="djs-hit" style="fill: none; stroke-opacity: 0; stroke: white; stroke-width: 15px;"/><rect x="761" y="139" width="97" height="97" class="djs-outline" style="fill: none;"/></g></g><g class="djs-group"><g class="djs-element djs-connection" data-element-id="SequenceFlow_0knx4hd" style="display: block;"><g class="djs-visual"><path d="m  952,230L1021,230 " style="fill: none; stroke-width: 2px; stroke: black; stroke-linejoin: round; marker-end: url('#sequenceflow-end-white-black-b3gwn5modnl2py15xtli5vp71');"/></g><polyline points="952,230 1021,230 " class="djs-hit" style="fill: none; stroke-opacity: 0; stroke: white; stroke-width: 15px;"/><rect x="946" y="224" width="81" height="12" class="djs-outline" style="fill: none;"/></g></g><g class="djs-group"><g class="djs-element djs-connection" data-element-id="SequenceFlow_0jmf65w" style="display: block;"><g class="djs-visual"><path d="m  1071,230L1140,230 " style="fill: none; stroke-width: 2px; stroke: black; stroke-linejoin: round; marker-end: url('#sequenceflow-end-white-black-b3gwn5modnl2py15xtli5vp71');"/></g><polyline points="1071,230 1140,230 " class="djs-hit" style="fill: none; stroke-opacity: 0; stroke: white; stroke-width: 15px;"/><rect x="1065" y="224" width="81" height="12" class="djs-outline" style="fill: none;"/></g></g><g class="djs-group"><g class="djs-element djs-connection" data-element-id="SequenceFlow_1ezok0t" style="display: block;"><g class="djs-visual"><path d="m  1046,255L1046,340 L1140,340 " style="fill: none; stroke-width: 2px; stroke: black; stroke-linejoin: round; marker-end: url('#sequenceflow-end-white-black-b3gwn5modnl2py15xtli5vp71');"/></g><polyline points="1046,255 1046,340 1140,340 " class="djs-hit" style="fill: none; stroke-opacity: 0; stroke: white; stroke-width: 15px;"/><rect x="1040" y="249" width="106" height="97" class="djs-outline" style="fill: none;"/></g></g><g class="djs-group"><g class="djs-element djs-connection" data-element-id="SequenceFlow_07yjmel" style="display: block;"><g class="djs-visual"><path d="m  1240,230L1309,230 " style="fill: none; stroke-width: 2px; stroke: black; stroke-linejoin: round; marker-end: url('#sequenceflow-end-white-black-b3gwn5modnl2py15xtli5vp71');"/></g><polyline points="1240,230 1309,230 " class="djs-hit" style="fill: none; stroke-opacity: 0; stroke: white; stroke-width: 15px;"/><rect x="1234" y="224" width="81" height="12" class="djs-outline" style="fill: none;"/></g></g><g class="djs-group"><g class="djs-element djs-connection" data-element-id="SequenceFlow_0w5g26g" style="display: block;"><g class="djs-visual"><path d="m  1240,340L1334,340 L1334,255 " style="fill: none; stroke-width: 2px; stroke: black; stroke-linejoin: round; marker-end: url('#sequenceflow-end-white-black-b3gwn5modnl2py15xtli5vp71');"/></g><polyline points="1240,340 1334,340 1334,255 " class="djs-hit" style="fill: none; stroke-opacity: 0; stroke: white; stroke-width: 15px;"/><rect x="1234" y="249" width="106" height="97" class="djs-outline" style="fill: none;"/></g></g><g class="djs-group"><g class="djs-element djs-connection" data-element-id="SequenceFlow_1e6rssk" style="display: block;"><g class="djs-visual"><path d="m  1359,230L1428,230 " style="fill: none; stroke-width: 2px; stroke: black; stroke-linejoin: round; marker-end: url('#sequenceflow-end-white-black-b3gwn5modnl2py15xtli5vp71');"/></g><polyline points="1359,230 1428,230 " class="djs-hit" style="fill: none; stroke-opacity: 0; stroke: white; stroke-width: 15px;"/><rect x="1353" y="224" width="81" height="12" class="djs-outline" style="fill: none;"/></g></g><g class="djs-group"><g class="djs-element djs-connection" data-element-id="SequenceFlow_0pi24kt" style="display: block;"><g class="djs-visual"><path d="m  1528,230L1597,230 " style="fill: none; stroke-width: 2px; stroke: black; stroke-linejoin: round; marker-end: url('#sequenceflow-end-white-black-b3gwn5modnl2py15xtli5vp71');"/></g><polyline points="1528,230 1597,230 " class="djs-hit" style="fill: none; stroke-opacity: 0; stroke: white; stroke-width: 15px;"/><rect x="1522" y="224" width="81" height="12" class="djs-outline" style="fill: none;"/></g></g><g class="djs-group"><g class="djs-element djs-connection" data-element-id="SequenceFlow_1vzujly" style="display: block;"><g class="djs-visual"><path d="m  1697,230L1766,230 " style="fill: none; stroke-width: 2px; stroke: black; stroke-linejoin: round; marker-end: url('#sequenceflow-end-white-black-b3gwn5modnl2py15xtli5vp71');"/></g><polyline points="1697,230 1766,230 " class="djs-hit" style="fill: none; stroke-opacity: 0; stroke: white; stroke-width: 15px;"/><rect x="1691" y="224" width="81" height="12" class="djs-outline" style="fill: none;"/></g></g><g class="djs-group"><g class="djs-element djs-connection" data-element-id="SequenceFlow_0sbd723" style="display: block;"><g class="djs-visual"><path d="m  1816,230L1885,230 " style="fill: none; stroke-width: 2px; stroke: black; stroke-linejoin: round; marker-end: url('#sequenceflow-end-white-black-b3gwn5modnl2py15xtli5vp71');"/></g><polyline points="1816,230 1885,230 " class="djs-hit" style="fill: none; stroke-opacity: 0; stroke: white; stroke-width: 15px;"/><rect x="1810" y="224" width="81" height="12" class="djs-outline" style="fill: none;"/></g></g><g class="djs-group"><g class="djs-element djs-connection" data-element-id="SequenceFlow_1233uyn" style="display: block;"><g class="djs-visual"><path d="m  1791,255L1791,340 L1885,340 " style="fill: none; stroke-width: 2px; stroke: black; stroke-linejoin: round; marker-end: url('#sequenceflow-end-white-black-b3gwn5modnl2py15xtli5vp71');"/></g><polyline points="1791,255 1791,340 1885,340 " class="djs-hit" style="fill: none; stroke-opacity: 0; stroke: white; stroke-width: 15px;"/><rect x="1785" y="249" width="106" height="97" class="djs-outline" style="fill: none;"/></g></g><g class="djs-group"><g class="djs-element djs-connection" data-element-id="SequenceFlow_0v7xqmw" style="display: block;"><g class="djs-visual"><path d="m  1791,255L1791,450 L1885,450 " style="fill: none; stroke-width: 2px; stroke: black; stroke-linejoin: round; marker-end: url('#sequenceflow-end-white-black-b3gwn5modnl2py15xtli5vp71');"/></g><polyline points="1791,255 1791,450 1885,450 " class="djs-hit" style="fill: none; stroke-opacity: 0; stroke: white; stroke-width: 15px;"/><rect x="1785" y="249" width="106" height="207" class="djs-outline" style="fill: none;"/></g></g><g class="djs-group"><g class="djs-element djs-connection" data-element-id="SequenceFlow_1cwdvjo" style="display: block;"><g class="djs-visual"><path d="m  952,120L1012,120 " style="fill: none; stroke-width: 2px; stroke: black; stroke-linejoin: round; marker-end: url('#sequenceflow-end-white-black-b3gwn5modnl2py15xtli5vp71');"/></g><polyline points="952,120 1012,120 " class="djs-hit" style="fill: none; stroke-opacity: 0; stroke: white; stroke-width: 15px;"/><rect x="946" y="114" width="72" height="12" class="djs-outline" style="fill: none;"/></g></g><g class="djs-group"><g class="djs-element djs-connection" data-element-id="SequenceFlow_0g8o2v9" style="display: block;"><g class="djs-visual"><path d="m  1985,230L2054,230 " style="fill: none; stroke-width: 2px; stroke: black; stroke-linejoin: round; marker-end: url('#sequenceflow-end-white-black-b3gwn5modnl2py15xtli5vp71');"/></g><polyline points="1985,230 2054,230 " class="djs-hit" style="fill: none; stroke-opacity: 0; stroke: white; stroke-width: 15px;"/><rect x="1979" y="224" width="81" height="12" class="djs-outline" style="fill: none;"/></g></g><g class="djs-group"><g class="djs-element djs-connection" data-element-id="SequenceFlow_0ssabui" style="display: block;"><g class="djs-visual"><path d="m  1985,340L2020,340 L2020,230 L2054,230 " style="fill: none; stroke-width: 2px; stroke: black; stroke-linejoin: round; marker-end: url('#sequenceflow-end-white-black-b3gwn5modnl2py15xtli5vp71');"/></g><polyline points="1985,340 2020,340 2020,230 2054,230 " class="djs-hit" style="fill: none; stroke-opacity: 0; stroke: white; stroke-width: 15px;"/><rect x="1979" y="224" width="81" height="122" class="djs-outline" style="fill: none;"/></g></g><g class="djs-group"><g class="djs-element djs-connection" data-element-id="SequenceFlow_10j1huu" style="display: block;"><g class="djs-visual"><path d="m  1985,450L2020,450 L2020,230 L2054,230 " style="fill: none; stroke-width: 2px; stroke: black; stroke-linejoin: round; marker-end: url('#sequenceflow-end-white-black-b3gwn5modnl2py15xtli5vp71');"/></g><polyline points="1985,450 2020,450 2020,230 2054,230 " class="djs-hit" style="fill: none; stroke-opacity: 0; stroke: white; stroke-width: 15px;"/><rect x="1979" y="224" width="81" height="232" class="djs-outline" style="fill: none;"/></g></g><g class="djs-group"><g class="djs-element djs-shape" data-element-id="StartEvent_1" style="display: block;" transform="translate(173 102)"><g class="djs-visual"><circle cx="18" cy="18" r="18" style="stroke: black; stroke-width: 2px; fill: white; fill-opacity: 0.95; --darkreader-inline-stroke:#d3d2cf; --darkreader-inline-fill:#e6e6e6;" data-darkreader-inline-stroke="" data-darkreader-inline-fill=""/></g><rect x="0" y="0" width="36" height="36" class="djs-hit" style="fill: none; stroke-opacity: 0; stroke: white; stroke-width: 15px; --darkreader-inline-fill:none; --darkreader-inline-stroke:#e6e6e6;" data-darkreader-inline-fill="" data-darkreader-inline-stroke=""/><rect x="-6" y="-6" width="48" height="48" class="djs-outline" style="fill: none; --darkreader-inline-fill:none;" data-darkreader-inline-fill=""/></g></g><g class="djs-group"><g class="djs-element djs-shape" data-element-id="Task_12u8boe" style="display: block;" transform="translate(392 80)"><g class="djs-visual"><rect x="0" y="0" width="100" height="80" rx="10" ry="10" style="stroke: black; stroke-width: 2px; fill: white; fill-opacity: 0.95; --darkreader-inline-stroke:#d3d2cf; --darkreader-inline-fill:#e6e6e6;" data-darkreader-inline-stroke="" data-darkreader-inline-fill=""/><text lineHeight="1.2" class="djs-label" style="font-family: Arial, sans-serif; font-size: 12px; font-weight: normal; fill: black; --darkreader-inline-fill:#d3d2cf;" data-darkreader-inline-fill=""><tspan x="33.328125" y="29.200000000000003">Klient:</tspan><tspan x="23.4921875" y="43.6">Zapytanie </tspan><tspan x="26.828125" y="58">ofertowe</tspan></text></g><rect x="0" y="0" width="100" height="80" class="djs-hit" style="fill: none; stroke-opacity: 0; stroke: white; stroke-width: 15px; --darkreader-inline-fill:none; --darkreader-inline-stroke:#e6e6e6;" data-darkreader-inline-fill="" data-darkreader-inline-stroke=""/><rect x="-6" y="-6" width="112" height="92" class="djs-outline" style="fill: none; --darkreader-inline-fill:none;" data-darkreader-inline-fill=""/></g></g><g class="djs-group"><g class="djs-element djs-shape" data-element-id="Task_0ajt53o" style="display: block;" transform="translate(592 80)"><g class="djs-visual"><rect x="0" y="0" width="100" height="80" rx="10" ry="10" style="stroke: black; stroke-width: 2px; fill: white; fill-opacity: 0.95;"/><text lineHeight="1.2" class="djs-label" style="font-family: Arial, sans-serif; font-size: 12px; font-weight: normal; fill: black;"><tspan x="15.65625" y="36.4">Pracownik 1:</tspan><tspan x="28.5" y="50.8">Decyzja</tspan></text></g><rect x="0" y="0" width="100" height="80" class="djs-hit" style="fill: none; stroke-opacity: 0; stroke: white; stroke-width: 15px;"/><rect x="-6" y="-6" width="112" height="92" class="djs-outline" style="fill: none;"/></g></g><g class="djs-group"><g class="djs-element djs-shape" data-element-id="ExclusiveGateway_1sq7qdn" style="display: block;" transform="translate(742 95)"><g class="djs-visual"><polygon points="25,0 50,25 25,50 0,25" style="stroke: black; stroke-width: 2px; fill: white; fill-opacity: 0.95;"/><path d="m 16,15 7.42857142857143,9.714285714285715 -7.42857142857143,9.714285714285715 3.428571428571429,0 5.714285714285715,-7.464228571428572 5.714285714285715,7.464228571428572 3.428571428571429,0 -7.42857142857143,-9.714285714285715 7.42857142857143,-9.714285714285715 -3.428571428571429,0 -5.714285714285715,7.464228571428572 -5.714285714285715,-7.464228571428572 -3.428571428571429,0 z" style="fill: black; stroke-width: 1px; stroke: black;"/></g><rect x="0" y="0" width="50" height="50" class="djs-hit" style="fill: none; stroke-opacity: 0; stroke: white; stroke-width: 15px;"/><rect x="-6" y="-6" width="62" height="62" class="djs-outline" style="fill: none;"/></g></g><g class="djs-group"><g class="djs-element djs-shape" data-element-id="Task_1ypdj2c" style="display: block;" transform="translate(852 80)"><g class="djs-visual"><rect x="0" y="0" width="100" height="80" rx="10" ry="10" style="stroke: black; stroke-width: 2px; fill: white; fill-opacity: 0.95;"/><text lineHeight="1.2" class="djs-label" style="font-family: Arial, sans-serif; font-size: 12px; font-weight: normal; fill: black;"><tspan x="33.328125" y="36.4">Klient:</tspan><tspan x="13.484375" y="50.8">Uzasadnienie</tspan></text></g><rect x="0" y="0" width="100" height="80" class="djs-hit" style="fill: none; stroke-opacity: 0; stroke: white; stroke-width: 15px;"/><rect x="-6" y="-6" width="112" height="92" class="djs-outline" style="fill: none;"/></g></g><g class="djs-group"><g class="djs-element djs-shape" data-element-id="Task_17zfcxh" style="display: block;" transform="translate(852 190)"><g class="djs-visual"><rect x="0" y="0" width="100" height="80" rx="10" ry="10" style="stroke: black; stroke-width: 2px; fill: white; fill-opacity: 0.95;"/><text lineHeight="1.2" class="djs-label" style="font-family: Arial, sans-serif; font-size: 12px; font-weight: normal; fill: black;"><tspan x="15.65625" y="29.200000000000003">Pracownik 1:</tspan><tspan x="10.484375" y="43.6">Przygotowanie </tspan><tspan x="9.3125" y="58">szablonu oferty</tspan></text></g><rect x="0" y="0" width="100" height="80" class="djs-hit" style="fill: none; stroke-opacity: 0; stroke: white; stroke-width: 15px;"/><rect x="-6" y="-6" width="112" height="92" class="djs-outline" style="fill: none;"/></g></g><g class="djs-group"><g class="djs-element djs-shape" data-element-id="ExclusiveGateway_18j1h4f" style="display: block;" transform="translate(1021 205)"><g class="djs-visual"><polygon points="25,0 50,25 25,50 0,25" style="stroke: black; stroke-width: 2px; fill: white; fill-opacity: 0.95;"/><path d="m 23,10 0,12.5 -12.5,0 0,5 12.5,0 0,12.5 5,0 0,-12.5 12.5,0 0,-5 -12.5,0 0,-12.5 -5,0 z" style="fill: black; stroke-width: 1px; stroke: black;"/></g><rect x="0" y="0" width="50" height="50" class="djs-hit" style="fill: none; stroke-opacity: 0; stroke: white; stroke-width: 15px;"/><rect x="-6" y="-6" width="62" height="62" class="djs-outline" style="fill: none;"/></g></g><g class="djs-group"><g class="djs-element djs-shape" data-element-id="Task_0f99faq" style="display: block;" transform="translate(1140 190)"><g class="djs-visual"><rect x="0" y="0" width="100" height="80" rx="10" ry="10" style="stroke: black; stroke-width: 2px; fill: white; fill-opacity: 0.95;"/><text lineHeight="1.2" class="djs-label" style="font-family: Arial, sans-serif; font-size: 12px; font-weight: normal; fill: black;"><tspan x="15.65625" y="29.200000000000003">Pracownik 2:</tspan><tspan x="19.8203125" y="43.6">Dodawanie </tspan><tspan x="22.15625" y="58">produktów</tspan></text></g><rect x="0" y="0" width="100" height="80" class="djs-hit" style="fill: none; stroke-opacity: 0; stroke: white; stroke-width: 15px;"/><rect x="-6" y="-6" width="112" height="92" class="djs-outline" style="fill: none;"/></g></g><g class="djs-group"><g class="djs-element djs-shape" data-element-id="Task_01v5jyp" style="display: block;" transform="translate(1140 300)"><g class="djs-visual"><rect x="0" y="0" width="100" height="80" rx="10" ry="10" style="stroke: black; stroke-width: 2px; fill: white; fill-opacity: 0.95;"/><text lineHeight="1.2" class="djs-label" style="font-family: Arial, sans-serif; font-size: 12px; font-weight: normal; fill: black;"><tspan x="15.65625" y="29.200000000000003">Pracownik 3:</tspan><tspan x="19.8203125" y="43.6">Dodawanie </tspan><tspan x="22.15625" y="58">produktów</tspan></text></g><rect x="0" y="0" width="100" height="80" class="djs-hit" style="fill: none; stroke-opacity: 0; stroke: white; stroke-width: 15px;"/><rect x="-6" y="-6" width="112" height="92" class="djs-outline" style="fill: none;"/></g></g><g class="djs-group"><g class="djs-element djs-shape" data-element-id="ExclusiveGateway_1ioj51y" style="display: block;" transform="translate(1309 205)"><g class="djs-visual"><polygon points="25,0 50,25 25,50 0,25" style="stroke: black; stroke-width: 2px; fill: white; fill-opacity: 0.95;"/><path d="m 23,10 0,12.5 -12.5,0 0,5 12.5,0 0,12.5 5,0 0,-12.5 12.5,0 0,-5 -12.5,0 0,-12.5 -5,0 z" style="fill: black; stroke-width: 1px; stroke: black;"/></g><rect x="0" y="0" width="50" height="50" class="djs-hit" style="fill: none; stroke-opacity: 0; stroke: white; stroke-width: 15px;"/><rect x="-6" y="-6" width="62" height="62" class="djs-outline" style="fill: none;"/></g></g><g class="djs-group"><g class="djs-element djs-shape" data-element-id="Task_05d7af4" style="display: block;" transform="translate(1428 190)"><g class="djs-visual"><rect x="0" y="0" width="100" height="80" rx="10" ry="10" style="stroke: black; stroke-width: 2px; fill: white; fill-opacity: 0.95;"/><text lineHeight="1.2" class="djs-label" style="font-family: Arial, sans-serif; font-size: 12px; font-weight: normal; fill: black;"><tspan x="15.65625" y="29.200000000000003">Pracownik 1:</tspan><tspan x="12.4921875" y="43.6">Zatwierdzenie </tspan><tspan x="10.15625" y="58">listy produktów</tspan></text></g><rect x="0" y="0" width="100" height="80" class="djs-hit" style="fill: none; stroke-opacity: 0; stroke: white; stroke-width: 15px;"/><rect x="-6" y="-6" width="112" height="92" class="djs-outline" style="fill: none;"/></g></g><g class="djs-group"><g class="djs-element djs-shape" data-element-id="Task_1ky4qc0" style="display: block;" transform="translate(1597 190)"><g class="djs-visual"><rect x="0" y="0" width="100" height="80" rx="10" ry="10" style="stroke: black; stroke-width: 2px; fill: white; fill-opacity: 0.95;"/><text lineHeight="1.2" class="djs-label" style="font-family: Arial, sans-serif; font-size: 12px; font-weight: normal; fill: black;"><tspan x="15.65625" y="29.200000000000003">Pracownik 1:</tspan><tspan x="15.15625" y="43.6">Dokończenie </tspan><tspan x="35" y="58">oferty</tspan></text></g><rect x="0" y="0" width="100" height="80" class="djs-hit" style="fill: none; stroke-opacity: 0; stroke: white; stroke-width: 15px;"/><rect x="-6" y="-6" width="112" height="92" class="djs-outline" style="fill: none;"/></g></g><g class="djs-group"><g class="djs-element djs-shape" data-element-id="ExclusiveGateway_01ehyoo" style="display: block;" transform="translate(1766 205)"><g class="djs-visual"><polygon points="25,0 50,25 25,50 0,25" style="stroke: black; stroke-width: 2px; fill: white; fill-opacity: 0.95;"/><path d="m 23,10 0,12.5 -12.5,0 0,5 12.5,0 0,12.5 5,0 0,-12.5 12.5,0 0,-5 -12.5,0 0,-12.5 -5,0 z" style="fill: black; stroke-width: 1px; stroke: black;"/></g><rect x="0" y="0" width="50" height="50" class="djs-hit" style="fill: none; stroke-opacity: 0; stroke: white; stroke-width: 15px;"/><rect x="-6" y="-6" width="62" height="62" class="djs-outline" style="fill: none;"/></g></g><g class="djs-group"><g class="djs-element djs-shape" data-element-id="Task_14n6369" style="display: block;" transform="translate(1885 190)"><g class="djs-visual"><rect x="0" y="0" width="100" height="80" rx="10" ry="10" style="stroke: black; stroke-width: 2px; fill: white; fill-opacity: 0.95;"/><text lineHeight="1.2" class="djs-label" style="font-family: Arial, sans-serif; font-size: 12px; font-weight: normal; fill: black;"><tspan x="33.328125" y="29.200000000000003">Klient:</tspan><tspan x="19.1640625" y="43.6">Otrzymanie </tspan><tspan x="35" y="58">oferty</tspan></text></g><rect x="0" y="0" width="100" height="80" class="djs-hit" style="fill: none; stroke-opacity: 0; stroke: white; stroke-width: 15px;"/><rect x="-6" y="-6" width="112" height="92" class="djs-outline" style="fill: none;"/></g></g><g class="djs-group"><g class="djs-element djs-shape" data-element-id="Task_1v54j2s" style="display: block;" transform="translate(1885 300)"><g class="djs-visual"><rect x="0" y="0" width="100" height="80" rx="10" ry="10" style="stroke: black; stroke-width: 2px; fill: white; fill-opacity: 0.95;"/><text lineHeight="1.2" class="djs-label" style="font-family: Arial, sans-serif; font-size: 12px; font-weight: normal; fill: black;"><tspan x="10.78125" y="36.4">Serwer WWW:</tspan><tspan x="10.9765625" y="50.8">Dodanie oferty</tspan></text></g><rect x="0" y="0" width="100" height="80" class="djs-hit" style="fill: none; stroke-opacity: 0; stroke: white; stroke-width: 15px;"/><rect x="-6" y="-6" width="112" height="92" class="djs-outline" style="fill: none;"/></g></g><g class="djs-group"><g class="djs-element djs-shape" data-element-id="Task_112yatg" style="display: block;" transform="translate(1885 410)"><g class="djs-visual"><rect x="0" y="0" width="100" height="80" rx="10" ry="10" style="stroke: black; stroke-width: 2px; fill: white; fill-opacity: 0.95;"/><text lineHeight="1.2" class="djs-label" style="font-family: Arial, sans-serif; font-size: 12px; font-weight: normal; fill: black;"><tspan x="22.5" y="36.4">Archiwum:</tspan><tspan x="10.9765625" y="50.8">Dodanie oferty</tspan></text></g><rect x="0" y="0" width="100" height="80" class="djs-hit" style="fill: none; stroke-opacity: 0; stroke: white; stroke-width: 15px;"/><rect x="-6" y="-6" width="112" height="92" class="djs-outline" style="fill: none;"/></g></g><g class="djs-group"><g class="djs-element djs-shape" data-element-id="EndEvent_0f8b99c" style="display: block;" transform="translate(1012 102)"><g class="djs-visual"><circle cx="18" cy="18" r="18" style="stroke: black; stroke-width: 4px; fill: white; fill-opacity: 0.95;"/></g><rect x="0" y="0" width="36" height="36" class="djs-hit" style="fill: none; stroke-opacity: 0; stroke: white; stroke-width: 15px;"/><rect x="-6" y="-6" width="48" height="48" class="djs-outline" style="fill: none;"/></g></g><g class="djs-group"><g class="djs-element djs-shape hover selected" data-element-id="EndEvent_1m5p6u4" style="display: block;" transform="translate(2054 212)"><g class="djs-visual"><circle cx="18" cy="18" r="18" style="stroke: black; stroke-width: 4px; fill: white; fill-opacity: 0.95;"/></g><rect x="0" y="0" width="36" height="36" class="djs-hit" style="fill: none; stroke-opacity: 0; stroke: white; stroke-width: 15px;"/><rect x="-6" y="-6" width="48" height="48" class="djs-outline" style="fill: none;"/></g></g><g class="djs-drag-group" style="pointer-events: none;" transform="translate(125 -176)"/><g class="djs-drag-group" style="pointer-events: none;" transform="translate(109 -157)"/><g class="djs-drag-group" style="pointer-events: none;" transform="translate(26 -19)"/><g class="djs-drag-group" style="pointer-events: none;" transform="translate(135 -176)"/><g class="djs-drag-group" style="pointer-events: none;" transform="translate(127 -176)"/><g class="djs-drag-group" style="pointer-events: none;" transform="translate(103 -35)"/><g class="djs-drag-group" style="pointer-events: none;" transform="translate(-2 35)"/><g class="djs-drag-group" style="pointer-events: none;" transform="translate(-74 0)"/><g class="djs-drag-group" style="pointer-events: none;" transform="translate(0 0)"/></svg>